<?xml version="1.0" standalone="no"?>
<!DOCTYPE svg PUBLIC "-//W3C//DTD SVG 20010904//EN"
 "http://www.w3.org/TR/2001/REC-SVG-20010904/DTD/svg10.dtd">
<svg version="1.0" xmlns="http://www.w3.org/2000/svg"
 width="286.000000pt" height="80.000000pt" viewBox="0 0 286.000000 80.000000"
 preserveAspectRatio="xMidYMid meet">

<g transform="translate(0.000000,80.000000) scale(0.100000,-0.100000)"
fill="#000000" stroke="none">
<path d="M90 778 c-33 -17 -51 -35 -67 -68 -22 -43 -23 -54 -23 -310 0 -256 1
-267 23 -310 16 -33 34 -51 67 -68 l44 -22 1296 0 1296 0 44 23 c33 16 51 34
68 67 21 43 22 54 22 310 0 256 -1 267 -22 310 -17 33 -35 51 -68 68 l-44 22
-1296 0 -1296 0 -44 -22z m484 -233 c9 -25 -4 -45 -30 -45 -20 0 -24 5 -24 30
0 25 4 30 24 30 13 0 26 -7 30 -15z m126 -15 c0 -25 -4 -30 -25 -30 -21 0 -25
5 -25 30 0 25 4 30 25 30 21 0 25 -5 25 -30z m-70 0 c0 -13 -7 -20 -20 -20
-13 0 -20 7 -20 20 0 13 7 20 20 20 13 0 20 -7 20 -20z m218 -14 c-2 -13 -12
-22 -26 -24 -29 -4 -42 26 -18 44 24 17 48 6 44 -20z m822 -15 l0 -49 43 5
c83 10 139 -49 122 -127 -13 -60 -92 -98 -145 -70 -13 7 -21 7 -25 0 -3 -5
-15 -10 -26 -10 -18 0 -19 8 -19 150 l0 150 25 0 c23 0 25 -3 25 -49z m-720
-38 l0 -68 63 68 c52 58 67 68 90 65 l27 -3 -53 -60 -54 -60 53 -66 c59 -73
65 -89 32 -89 -16 0 -38 19 -71 61 -47 58 -49 60 -68 43 -13 -12 -19 -30 -19
-61 0 -39 -2 -43 -25 -43 l-25 0 0 140 0 140 25 0 c24 0 25 -2 25 -67z m-252
-11 c3 -17 -2 -22 -17 -22 -14 0 -21 6 -21 18 0 38 33 41 38 4z m-138 -12 c0
-11 -7 -20 -15 -20 -8 0 -15 9 -15 20 0 11 7 20 15 20 8 0 15 -9 15 -20z m290
-85 l0 -105 -25 0 -25 0 0 105 0 105 25 0 25 0 0 -105z m455 80 c22 -21 25
-33 25 -100 0 -58 -3 -77 -15 -81 -8 -4 -21 -1 -28 4 -8 7 -18 7 -27 2 -41
-26 -120 9 -120 54 0 41 23 59 84 64 58 5 66 11 41 32 -10 8 -31 11 -60 7 -28
-4 -47 -2 -51 5 -12 19 27 38 78 38 39 0 54 -5 73 -25z m241 0 c21 -22 24 -33
24 -105 0 -79 -1 -81 -22 -78 -21 3 -23 9 -26 73 -3 75 -13 95 -45 95 -41 0
-57 -28 -57 -102 0 -66 -1 -69 -22 -66 -22 3 -23 8 -26 104 l-3 101 76 1 c68
1 79 -1 101 -23z m474 7 c16 -13 23 -32 27 -79 7 -78 -1 -113 -27 -113 -11 0
-20 5 -20 10 0 7 -6 7 -19 0 -55 -29 -121 3 -121 59 0 39 21 54 85 59 51 4 54
6 44 24 -10 18 -18 20 -60 15 -54 -7 -74 7 -44 30 27 19 108 17 135 -5z m231
7 c25 -13 41 -73 37 -139 -3 -48 -6 -55 -25 -58 -22 -3 -23 0 -23 60 0 72 -18
108 -54 108 -35 0 -45 -19 -48 -95 -3 -64 -5 -70 -25 -73 -23 -3 -23 -2 -23
100 l0 104 72 2 c39 0 79 -3 89 -9z m-1691 -84 c0 -18 -5 -25 -20 -25 -20 0
-28 28 -13 43 15 16 33 6 33 -18z m140 -5 c0 -23 -4 -30 -20 -30 -11 0 -23 7
-26 15 -9 23 3 45 26 45 16 0 20 -7 20 -30z m-70 0 c0 -13 -7 -20 -20 -20 -13
0 -20 7 -20 20 0 13 7 20 20 20 13 0 20 -7 20 -20z m-60 -85 c0 -18 -5 -25
-20 -25 -15 0 -20 7 -20 25 0 18 5 25 20 25 15 0 20 -7 20 -25z m80 0 c0 -20
-5 -25 -26 -25 -20 0 -25 4 -20 16 3 9 6 20 6 25 0 5 9 9 20 9 15 0 20 -7 20
-25z"/>
<path d="M1686 404 c-25 -25 -20 -81 9 -100 31 -20 53 -15 77 17 44 58 -35
134 -86 83z"/>
<path d="M1194 325 c-3 -8 -3 -19 1 -25 14 -23 85 -3 85 25 0 21 -78 21 -86 0z"/>
<path d="M1912 318 c4 -29 48 -36 72 -13 26 26 19 35 -30 35 -41 0 -45 -2 -42
-22z"/>
</g>
</svg>
